<svg xmlns="http://www.w3.org/2000/svg" xmlns:xlink="http://www.w3.org/1999/xlink" version="1.1"  enable-background="new 0 0 100 100" xml:space="preserve"><g><circle cx="50.7" cy="21.2" r="6.9"/><circle cx="75.7" cy="36.5" r="7.5"/><circle cx="87.5" cy="53.6" r="7.5"/><circle cx="24.3" cy="37.8" r="7.5"/><circle cx="12.5" cy="54.8" r="7.5"/><polygon points="65,50.6 55.8,50.6 44.3,50.6 35,50.6 8.5,85.7 91.1,85.2  "/><path d="M32.3,45.8c0.5,0.4,1.2,0.8,1.8,0.9c0.4,0.1,0.8,0.1,1.2,0.1c1.6,0,3.2-0.8,4.2-2.2l0,0l2.6-3.4v7.4h2.2h11.5h7.9l2.9-2.4   C68,45,68.2,43,67,41.6l-0.9-1l-6.8-8.9c-0.4-0.5-0.9-0.9-1.4-1.1c-0.7-0.5-1.4-0.7-2.3-0.7H55l-2.5,7.5l-1.1-5.2L52,30h-2.6   l0.7,2.1l-1,5.2l-2.6-7.5H46c-1,0-1.9,0.4-2.6,1c-0.4,0.2-0.7,0.5-1,0.8l-6.6,8.6l-2.5-2.2c-0.1,2.4-1,4.5-2.6,6.1L32.3,45.8z    M59.6,40.9l1.9,2.5L59.6,45V40.9z"/><path d="M78.3,53.6c0-2.5,1-4.7,2.6-6.4c-0.8-0.8-1.9-1.2-3-1.2h-4.2c-2.4,0-4.4,2-4.4,4.4v2.5l10.2,13.4c0.3-1.7,1.4-3.2,2.9-4.1   v-1C79.9,59.4,78.3,56.7,78.3,53.6z"/><path d="M26.3,47.3h-4.2c-1.2,0-2.3,0.5-3,1.2c1.6,1.7,2.6,3.9,2.6,6.4c0,3.1-1.6,5.9-3.9,7.5v1c1.2,0.7,2.1,1.9,2.6,3.2l10.4-13.7   v-1.3C30.8,49.2,28.8,47.3,26.3,47.3z"/><path d="M14.6,64.3h-4.2c-2.4,0-4.4,2-4.4,4.4v17l1.9-2.5L19,68.5C18.9,66.2,16.9,64.3,14.6,64.3z"/><path d="M89.6,63h-4.2C83,63,81,65,81,67.4v1.1l11.1,14.7l1.5,2H94V67.4C94,65,92,63,89.6,63z"/></g></svg>