<svg xmlns="http://www.w3.org/2000/svg" xmlns:cc="http://creativecommons.org/ns#" xmlns:dc="http://purl.org/dc/elements/1.1/" xmlns:rdf="http://www.w3.org/1999/02/22-rdf-syntax-ns#" enable-background="new" version="1.1"><path d="m25 4c-2.7527 0-5 2.2473-5 5v5c0 2.7527 2.2473 5 5 5v3h2v-3h10v3h2v-3c2.7527 0 5-2.2473 5-5v-5c0-2.7527-2.2473-5-5-5h-14zm-18 20c-1.6447 0-3 1.3553-3 3v2c0 1.6447 1.3553 3 3 3h50c1.6447 0 3-1.3553 3-3v-2c0-1.6447-1.3553-3-3-3h-50zm1 10v23c0 1.6447 1.3553 3 3 3h1c1.6447 0 3-1.3553 3-3v-23h-7zm9 0v10h30v-10h-30zm32 0v23c0 1.6447 1.3553 3 3 3h1c1.6447 0 3-1.3553 3-3v-23h-7zm-28.578 12c-0.27015 0.61346-0.42188 1.2897-0.42188 2v9a1 1 0 0 0 1 1 1 1 0 0 0 1-1v-5h20v5a1 1 0 0 0 1 1 1 1 0 0 0 1-1v-9c0-0.71027-0.15172-1.3865-0.42188-2h-2.3379c0.47189 0.52925 0.75977 1.2276 0.75977 2v2h-20v-2c0-0.77238 0.28788-1.4708 0.75977-2h-2.3379z" color="#000000" style=""/></svg>